<?xml version="1.0" encoding="UTF-8" standalone="no"?>
<!-- Created with Inkscape (http://www.inkscape.org/) -->

<svg
   width="30.0px"
   height="30.0px"
   viewBox="0 0 30.0 30.0"
   version="1.1"
   id="SVGRoot"
   sodipodi:docname="botlogo.svg"
   inkscape:export-filename="C:\Users\yvonn\Desktop\art\bitmap3.png"
   inkscape:export-xdpi="1600"
   inkscape:export-ydpi="1600"
   inkscape:version="1.1 (c68e22c387, 2021-05-23)"
   xmlns:inkscape="http://www.inkscape.org/namespaces/inkscape"
   xmlns:sodipodi="http://sodipodi.sourceforge.net/DTD/sodipodi-0.dtd"
   xmlns="http://www.w3.org/2000/svg"
   xmlns:svg="http://www.w3.org/2000/svg">
  <sodipodi:namedview
     id="namedview14"
     pagecolor="#ffffff"
     bordercolor="#666666"
     borderopacity="1.0"
     inkscape:pageshadow="2"
     inkscape:pageopacity="0.0"
     inkscape:pagecheckerboard="0"
     inkscape:document-units="px"
     showgrid="true"
     inkscape:zoom="8.3856039"
     inkscape:cx="36.431485"
     inkscape:cy="7.7513797"
     inkscape:window-width="1920"
     inkscape:window-height="1018"
     inkscape:window-x="-6"
     inkscape:window-y="-6"
     inkscape:window-maximized="1"
     inkscape:current-layer="layer2">
    <inkscape:grid
       type="xygrid"
       id="grid20" />
  </sodipodi:namedview>
  <defs
     id="defs9">
    <inkscape:path-effect
       effect="bspline"
       id="path-effect21751"
       is_visible="true"
       lpeversion="1"
       weight="33.333333"
       steps="2"
       helper_size="0"
       apply_no_weight="true"
       apply_with_weight="true"
       only_selected="false" />
    <inkscape:path-effect
       effect="powerstroke"
       id="path-effect18843"
       is_visible="true"
       lpeversion="1"
       offset_points="0,2.8695133"
       not_jump="false"
       sort_points="true"
       interpolator_type="CubicBezierJohan"
       interpolator_beta="0.2"
       start_linecap_type="zerowidth"
       linejoin_type="extrp_arc"
       miter_limit="4"
       scale_width="1"
       end_linecap_type="zerowidth" />
    <inkscape:path-effect
       effect="bspline"
       id="path-effect18841"
       is_visible="true"
       lpeversion="1"
       weight="33.333333"
       steps="2"
       helper_size="0"
       apply_no_weight="true"
       apply_with_weight="true"
       only_selected="false" />
    <inkscape:path-effect
       effect="powerstroke"
       id="path-effect5647"
       is_visible="true"
       lpeversion="1"
       offset_points="0,2.5"
       not_jump="false"
       sort_points="true"
       interpolator_type="CubicBezierJohan"
       interpolator_beta="0.2"
       start_linecap_type="zerowidth"
       linejoin_type="extrp_arc"
       miter_limit="4"
       scale_width="1"
       end_linecap_type="zerowidth" />
    <inkscape:path-effect
       effect="bspline"
       id="path-effect5645"
       is_visible="true"
       lpeversion="1"
       weight="33.333333"
       steps="2"
       helper_size="0"
       apply_no_weight="true"
       apply_with_weight="true"
       only_selected="false" />
    <inkscape:path-effect
       effect="powerstroke"
       id="path-effect5415"
       is_visible="true"
       lpeversion="1"
       offset_points="0,1"
       not_jump="false"
       sort_points="true"
       interpolator_type="CubicBezierJohan"
       interpolator_beta="0.2"
       start_linecap_type="zerowidth"
       linejoin_type="extrp_arc"
       miter_limit="4"
       scale_width="1"
       end_linecap_type="zerowidth" />
    <inkscape:path-effect
       effect="bspline"
       id="path-effect5413"
       is_visible="true"
       lpeversion="1"
       weight="33.333333"
       steps="2"
       helper_size="0"
       apply_no_weight="true"
       apply_with_weight="true"
       only_selected="false" />
    <inkscape:path-effect
       effect="powerstroke"
       id="path-effect5409"
       is_visible="true"
       lpeversion="1"
       offset_points="0,1"
       not_jump="false"
       sort_points="true"
       interpolator_type="CubicBezierJohan"
       interpolator_beta="0.2"
       start_linecap_type="zerowidth"
       linejoin_type="extrp_arc"
       miter_limit="4"
       scale_width="1"
       end_linecap_type="zerowidth" />
    <inkscape:path-effect
       effect="powerstroke"
       id="path-effect5212"
       is_visible="true"
       lpeversion="1"
       offset_points="0,18.8679"
       not_jump="false"
       sort_points="true"
       interpolator_type="CubicBezierJohan"
       interpolator_beta="0.2"
       start_linecap_type="zerowidth"
       linejoin_type="extrp_arc"
       miter_limit="4"
       scale_width="1"
       end_linecap_type="zerowidth" />
    <inkscape:path-effect
       effect="bspline"
       id="path-effect5210"
       is_visible="true"
       lpeversion="1"
       weight="33.333333"
       steps="2"
       helper_size="0"
       apply_no_weight="true"
       apply_with_weight="true"
       only_selected="false" />
    <inkscape:path-effect
       effect="bspline"
       id="path-effect5140"
       is_visible="true"
       lpeversion="1"
       weight="33.333333"
       steps="2"
       helper_size="0"
       apply_no_weight="true"
       apply_with_weight="true"
       only_selected="false" />
    <inkscape:path-effect
       effect="skeletal"
       id="path-effect5103"
       is_visible="true"
       lpeversion="1"
       pattern="M 0,18.867925 C 0,8.4528302 8.4528302,0 18.867925,0 c 10.415094,0 18.867924,8.4528302 18.867924,18.867925 0,10.415094 -8.45283,18.867924 -18.867924,18.867924 C 8.4528302,37.735849 0,29.283019 0,18.867925 Z"
       copytype="single_stretched"
       prop_scale="3.5"
       scale_y_rel="false"
       spacing="0"
       normal_offset="0"
       tang_offset="0"
       prop_units="false"
       vertical_pattern="false"
       hide_knot="false"
       fuse_tolerance="0" />
    <inkscape:path-effect
       effect="bspline"
       id="path-effect5101"
       is_visible="true"
       lpeversion="1"
       weight="33.333333"
       steps="2"
       helper_size="0"
       apply_no_weight="true"
       apply_with_weight="true"
       only_selected="false" />
    <inkscape:path-effect
       effect="bspline"
       id="path-effect850"
       is_visible="true"
       lpeversion="1"
       weight="33.333333"
       steps="2"
       helper_size="0"
       apply_no_weight="true"
       apply_with_weight="true"
       only_selected="false" />
  </defs>
  <g
     inkscape:label="Layer 1"
     inkscape:groupmode="layer"
     id="layer1">
    <rect
       style="fill:none;fill-opacity:1;fill-rule:evenodd"
       id="rect20731"
       width="68"
       height="45"
       x="-19"
       y="-5"
       inkscape:export-filename="C:\Users\yvonn\rect20731.png"
       inkscape:export-xdpi="96"
       inkscape:export-ydpi="96" />
    <rect
       style="fill:none;fill-opacity:1;fill-rule:evenodd"
       id="rect22258"
       width="71"
       height="53"
       x="-15"
       y="-8"
       inkscape:export-filename="C:\Users\yvonn\Desktop\art\bitmap2.png"
       inkscape:export-xdpi="1600"
       inkscape:export-ydpi="1600" />
    <path
       sodipodi:type="star"
       style="fill:#ffe680;fill-rule:evenodd"
       id="path19202"
       inkscape:flatsided="false"
       sodipodi:sides="3"
       sodipodi:cx="15"
       sodipodi:cy="5"
       sodipodi:r1="11"
       sodipodi:r2="5.5"
       sodipodi:arg1="1.5707963"
       sodipodi:arg2="2.6179939"
       inkscape:rounded="0"
       inkscape:randomized="0"
       d="M 15,16 10.23686,7.7499999 5.4737204,-0.49999974 15,-0.5 l 9.526279,-2.6e-7 -4.763139,8.25000036 z"
       inkscape:transform-center-y="5.3333337"
       transform="matrix(1.6795644,0,0,1.939394,-10.193466,-1.0303035)" />
    <path
       sodipodi:type="star"
       style="fill:#ff8080;fill-rule:evenodd"
       id="path266"
       inkscape:flatsided="false"
       sodipodi:sides="3"
       sodipodi:cx="14.999999"
       sodipodi:cy="17"
       sodipodi:r1="23"
       sodipodi:r2="11.5"
       sodipodi:arg1="1.5707963"
       sodipodi:arg2="2.6179939"
       inkscape:rounded="0"
       inkscape:randomized="0"
       d="M 15,40 5.0407068,22.75 -4.9185855,5.5000005 14.999999,5.5 34.918583,5.4999995 24.959291,22.75 Z"
       inkscape:transform-center-y="-4.9999996"
       transform="matrix(-0.75306558,0,0,-0.8695652,26.295983,34.782608)" />
    <path
       sodipodi:type="star"
       style="fill:#80b3ff"
       id="path676"
       inkscape:flatsided="false"
       sodipodi:sides="3"
       sodipodi:cx="14.143594"
       sodipodi:cy="24"
       sodipodi:r1="16"
       sodipodi:r2="8"
       sodipodi:arg1="1.5707963"
       sodipodi:arg2="2.6179939"
       inkscape:rounded="0"
       inkscape:randomized="0"
       d="M 14.143594,40 7.2153905,28 0.28718711,16 14.143594,16 28,16 21.071797,28 Z"
       transform="matrix(-1.0051815,0,0,-1.2083334,29.216879,60.333336)"
       inkscape:transform-center-y="-4.8333341" />
  </g>
  <g
     inkscape:groupmode="layer"
     id="layer2"
     inkscape:label="Layer 2"
     style="display:inline">
    <path
       id="path3508"
       style="fill:#000000;stroke-width:3.71178"
       d="m 16.515633,6.0214848 -2.144531,1.0742187 c -0.008,0.040658 -0.01296,0.080241 -0.01953,0.1210937 l -0.03516,0.017578 c 0.0035,0.035523 0.0081,0.070595 0.01367,0.1054687 -0.03354,0.2053843 -0.0757,0.410253 -0.09961,0.6171875 -0.03238,0.2810049 -0.05465,0.5633048 -0.0918,0.84375 -0.04232,0.3470594 -0.07466,0.6939898 -0.09766,1.0429688 -0.03255,0.4867498 -0.0487,0.9754008 -0.01563,1.4628908 0.03356,0.602191 0.08138,1.202698 0.158203,1.800781 0.08529,0.651616 0.172317,1.303771 0.259766,1.955078 0.07014,0.592029 0.157945,1.181177 0.240234,1.771485 0.01593,0.110732 0.03181,0.221465 0.04885,0.332031 a 3.315713,2.0775731 0 0 0 -1.042969,-0.107422 3.315713,2.0775731 0 0 0 -3.314453,2.078125 3.315713,2.0775731 0 0 0 3.314453,2.076172 3.315713,2.0775731 0 0 0 3.082031,-1.316406 0.5,1.4316561 0 0 0 0.132813,-0.277344 3.315713,2.0775731 0 0 0 0.05273,-0.179687 0.5,1.4316561 0 0 0 0.0918,-0.824219 A 0.5,1.4316561 0 0 0 17,18 c -0.02646,-0.308926 -0.06328,-0.616889 -0.105469,-0.923828 -0.06473,-0.445679 -0.145606,-0.886893 -0.224609,-1.330078 -0.108416,-0.577063 -0.202356,-1.1587 -0.285156,-1.740234 -0.09589,-0.650141 -0.181602,-1.30049 -0.259766,-1.953125 -0.04183,-0.409849 -0.08529,-0.820646 -0.105469,-1.232422 -0.0074,-0.150652 -0.01386,-0.416037 -0.01758,-0.568359 -0.007,-0.204099 -0.0021,-0.4078056 0.0059,-0.6113286 0.107629,0.104981 0.213272,0.2105455 0.316406,0.3203125 0.148386,0.1614931 0.279005,0.3390751 0.412109,0.5136721 0.129145,0.173112 0.253256,0.352025 0.376953,0.529297 0.02085,0.03296 0.04124,0.06499 0.0625,0.09766 0.06362,0.09775 0.08389,0.120204 0.144532,0.222656 0.08492,0.143452 0.155702,0.296127 0.230468,0.445313 0.183168,0.368721 0.32839,0.752413 0.451172,1.146484 0.133444,0.395327 0.188019,0.8011 0.212891,1.216797 0.01005,0.242593 -0.0062,0.484304 0.01172,0.726562 l 2.089812,-1.130863 C 20.277524,13.50342 20.256134,13.274483 20.236334,13.046875 20.192574,12.618229 20.139824,12.186686 19.9961,11.779297 19.856944,11.380437 19.713821,10.98317 19.546881,10.595704 19.422507,10.315951 19.304949,10.030448 19.132821,9.7773441 19.01641,9.5866451 18.880748,9.410273 18.751961,9.228516 18.61088,9.0496824 18.477042,8.8642532 18.318368,8.7011722 18.150141,8.5232314 17.983811,8.3481253 17.806649,8.1796879 17.638384,8.0265562 17.471201,7.8687002 17.310555,7.7070316 17.14926,7.539219 16.986684,7.3721641 16.847664,7.1835941 16.717326,6.9996795 16.587979,6.8118656 16.503914,6.5996098 c -0.03092,-0.099897 -0.05255,-0.2032824 -0.05859,-0.3066407 0.0045,-0.018162 0.0088,-0.034668 0.01367,-0.052734 0.02002,-0.072936 0.04173,-0.1445441 0.05664,-0.21875 z"
       inkscape:export-filename="C:\Users\yvonn\Desktop\art\bitmap.png"
       inkscape:export-xdpi="1600"
       inkscape:export-ydpi="1600" />
  </g>
</svg>
